<!-- icon666.com - MILLIONS vector ICONS FREE --><svg version="1.1" id="Capa_1" xmlns="http://www.w3.org/2000/svg" xmlns:xlink="http://www.w3.org/1999/xlink" x="0px" y="0px" viewBox="0 0 512 512" style="enable-background:new 0 0 512 512;" xml:space="preserve"><path style="fill: rgb(55, 60, 62);" d="M512,256c0,2.288-0.031,4.566-0.104,6.834v0.01c-1.181,45.682-14.346,88.387-36.466,125.083 c-17.011,28.222-39.319,52.913-65.546,72.661c-20.804,15.684-44.094,28.264-69.171,37.052c-16.206,5.684-33.154,9.78-50.666,12.11 c-11.138,1.484-22.507,2.246-34.042,2.246c-18.975,0-37.47-2.069-55.274-5.987c-54.334-11.964-102.2-41.179-137.538-81.616 c-5.078-5.81-9.895-11.849-14.43-18.097c-4.315-5.935-8.38-12.058-12.183-18.369c-11.201-18.578-20.104-38.703-26.31-59.987 c-2.55-8.693-4.65-17.585-6.248-26.645C1.375,286.594,0.006,271.454,0.006,256c0-11.755,0.794-23.322,2.341-34.648 c1.212-9.038,2.905-17.93,5.047-26.645c6.196-25.224,16.133-48.974,29.184-70.634c2.999-4.995,6.175-9.864,9.508-14.628 C92.364,43.282,169.131,0.003,256.003,0.003s163.639,43.279,209.917,109.441c3.333,4.765,6.51,9.634,9.508,14.628 c19.78,32.82,32.402,70.457,35.704,110.716C511.707,241.779,512,248.853,512,256z" fill="#34ABE0"></path><g><path style="fill: rgb(0, 153, 224);" d="M221.686,278.56c2.414,2.403,3.908,5.736,3.908,9.414c0,7.356-5.966,13.322-13.322,13.322h-1.317 c-3.678,0-7.011,1.494-9.414,3.908c-2.414,2.403-3.908,5.736-3.908,9.414c0,7.356-5.966,13.322-13.322,13.322H10.264 c-2.55-8.693-4.65-17.585-6.248-26.645h28.922c3.678,0,7.011-1.494,9.425-3.908c2.403-2.403,3.897-5.736,3.897-9.414 c0-7.356-5.966-13.322-13.322-13.322H21.632c-3.678,0-7.011-1.494-9.425-3.908c-2.403-2.403-3.897-5.736-3.897-9.414 c0-7.366,5.966-13.322,13.322-13.322H59.05c3.688,0,7.011-1.494,9.425-3.908c2.414-2.403,3.908-5.736,3.908-9.414 c0-7.366-5.966-13.333-13.333-13.333H2.344c1.212-9.038,2.905-17.93,5.047-26.645h173.796c3.678,0,7.011,1.494,9.425,3.897 c2.403,2.414,3.897,5.747,3.897,9.425c0,7.366,5.956,13.322,13.322,13.322h4.441c7.356,0,13.322,5.966,13.322,13.333 c0,7.356-5.966,13.322-13.322,13.322h-24.429c-3.678,0-7.011,1.484-9.414,3.897c-2.414,2.414-3.908,5.736-3.908,9.425 c0,7.356,5.966,13.322,13.322,13.322h24.429C215.95,274.652,219.283,276.146,221.686,278.56z" fill="#78CAEF"></path><path style="fill: rgb(0, 153, 224);" d="M511.997,256.001c0,2.288-0.031,4.566-0.104,6.834v0.01c-1.285,0.637-2.456,1.484-3.469,2.487 c-2.403,2.414-3.897,5.747-3.897,9.425c0,7.366-5.956,13.322-13.322,13.322H383.601c-3.678,0-7.011-1.494-9.425-3.897 c-2.403-2.414-3.897-5.747-3.897-9.425c0-7.356,5.966-13.322,13.322-13.322h3.709c3.678,0,7.011-1.494,9.414-3.897 c2.414-2.414,3.908-5.747,3.908-9.425c0-7.356-5.966-13.322-13.322-13.322h-36.32c-3.678,0-7.011-1.494-9.414-3.897 c-2.414-2.414-3.908-5.747-3.908-9.425c0-7.356,5.966-13.322,13.322-13.322h112.273c7.356,0,13.322,5.966,13.322,13.322 c0,7.356,5.966,13.322,13.322,13.322h21.222C511.704,241.78,511.997,248.854,511.997,256.001z" fill="#78CAEF"></path></g><path style="" d="M475.429,109.444v278.483c-9.425,15.632-20.469,30.176-32.914,43.405 c-6.269,6.677-12.904,13.009-19.853,18.975c-18.515,15.893-39.329,29.194-61.868,39.319c-3.584,1.609-7.21,3.145-10.877,4.587 c-25.422,10.041-52.84,16.123-81.491,17.481c-3.605,0.178-7.241,0.282-10.888,0.293c-0.512,0.01-1.024,0.01-1.536,0.01 c-25.056,0-49.266-3.594-72.139-10.313c-3.668-1.066-7.293-2.226-10.888-3.459c-30.991-10.616-59.297-27.021-83.633-47.918 c-6.948-5.966-13.584-12.298-19.853-18.975c-12.445-13.228-23.489-27.773-32.914-43.405V109.444L475.429,109.444L475.429,109.444z" fill="#C69A6A"></path><path style="" d="M475.429,175.968v69.192h-0.01c-20.198,0-36.571-16.373-36.571-36.571 c0,10.104-4.096,19.236-10.71,25.861c-6.625,6.614-15.757,10.71-25.861,10.71c-20.198,0-36.571-16.373-36.571-36.571 c0,10.104-4.096,19.236-10.71,25.861c-6.625,6.614-15.757,10.71-25.861,10.71c-20.198,0-36.571-16.373-36.571-36.571 c0,10.104-4.096,19.236-10.71,25.861c-6.625,6.614-15.757,10.71-25.861,10.71c-20.198,0-36.571-16.373-36.571-36.571 c0,10.104-4.096,19.236-10.71,25.861c-6.625,6.614-15.757,10.71-25.861,10.71c-20.198,0-36.571-16.373-36.571-36.571 c0,10.104-4.096,19.236-10.71,25.861c-6.625,6.614-15.757,10.71-25.861,10.71c-20.198,0-36.571-16.373-36.571-36.571 c0,10.104-4.096,19.236-10.71,25.861c-6.625,6.614-15.746,10.71-25.85,10.71v-69.192H475.429z" fill="#B58657"></path><path style="" d="M73.142,66.529H38.013c-9.912,0-18.405,7.086-20.181,16.838L0,181.306 c0,20.198,16.373,36.571,36.571,36.571l0,0c20.198,0,36.571-16.373,36.571-36.571V66.529z" fill="#EF4152"></path><path style="" d="M146.284,66.529H73.142v114.777c0,20.198,16.373,36.571,36.571,36.571l0,0 c20.198,0,36.571-16.373,36.571-36.571V66.529z" fill="#E8DBC4"></path><path style="" d="M219.426,66.529h-73.142v114.777c0,20.198,16.373,36.571,36.571,36.571l0,0 c20.198,0,36.571-16.373,36.571-36.571V66.529z" fill="#EF4152"></path><path style="" d="M292.568,66.529h-73.142v114.777c0,20.198,16.373,36.571,36.571,36.571l0,0 c20.198,0,36.571-16.373,36.571-36.571V66.529z" fill="#E8DBC4"></path><path style="" d="M365.71,66.529h-73.142v114.777c0,20.198,16.373,36.571,36.571,36.571l0,0 c20.198,0,36.571-16.373,36.571-36.571V66.529z" fill="#EF4152"></path><path style="" d="M438.852,66.529H365.71v114.777c0,20.198,16.373,36.571,36.571,36.571l0,0 c20.198,0,36.571-16.373,36.571-36.571V66.529z" fill="#E8DBC4"></path><path style="" d="M473.981,66.529h-35.129v114.777c0,20.198,16.373,36.571,36.571,36.571l0,0 c20.198,0,36.571-16.373,36.571-36.571l-17.832-97.94C492.386,73.615,483.893,66.529,473.981,66.529z" fill="#EF4152"></path><path style="fill: rgb(255, 112, 112);" d="M422.662,259.009v191.298c-44.784,38.452-103.005,61.69-166.659,61.69s-121.875-23.238-166.659-61.69 V259.009H422.662L422.662,259.009z" fill="#5C5E70"></path><path style="fill: rgb(75, 63, 63);" d="M53.641,159.108L53.641,159.108c-4.04,0-7.314-3.275-7.314-7.314V87.011 c0-4.04,3.275-7.314,7.314-7.314l0,0c4.04,0,7.314,3.275,7.314,7.314v64.783C60.955,155.833,57.68,159.108,53.641,159.108z" fill="#FF525D"></path><path style="" d="M127.363,159.108L127.363,159.108c-4.04,0-7.314-3.275-7.314-7.314V87.011 c0-4.04,3.275-7.314,7.314-7.314l0,0c4.04,0,7.314,3.275,7.314,7.314v64.783C134.677,155.833,131.403,159.108,127.363,159.108z" fill="#F9EED7"></path><path style="fill: rgb(75, 63, 63);" d="M493.572,158.284L493.572,158.284c-3.956,0.818-7.826-1.725-8.644-5.68L471.8,89.165 c-0.818-3.956,1.725-7.826,5.68-8.644l0,0c3.956-0.818,7.826,1.725,8.644,5.68l13.128,63.439 C500.072,153.595,497.528,157.465,493.572,158.284z" fill="#FF525D"></path><path style="" d="M422.253,159.108L422.253,159.108c-4.04,0-7.314-3.275-7.314-7.314V87.011 c0-4.04,3.275-7.314,7.314-7.314l0,0c4.04,0,7.314,3.275,7.314,7.314v64.783C429.567,155.833,426.292,159.108,422.253,159.108z" fill="#F9EED7"></path><path style="fill: rgb(75, 63, 63);" d="M348.531,159.108L348.531,159.108c-4.04,0-7.314-3.275-7.314-7.314V87.011 c0-4.04,3.275-7.314,7.314-7.314l0,0c4.04,0,7.314,3.275,7.314,7.314v64.783C355.845,155.833,352.57,159.108,348.531,159.108z" fill="#FF525D"></path><path style="" d="M274.808,159.108L274.808,159.108c-4.04,0-7.314-3.275-7.314-7.314V87.011 c0-4.04,3.275-7.314,7.314-7.314l0,0c4.04,0,7.314,3.275,7.314,7.314v64.783C282.122,155.833,278.847,159.108,274.808,159.108z" fill="#F9EED7"></path><path style="fill: rgb(75, 63, 63);" d="M201.086,159.108L201.086,159.108c-4.04,0-7.314-3.275-7.314-7.314V87.011 c0-4.04,3.275-7.314,7.314-7.314l0,0c4.04,0,7.314,3.275,7.314,7.314v64.783C208.4,155.833,205.126,159.108,201.086,159.108z" fill="#FF525D"></path><path style="" d="M409.95,304.21v-21.482c0-6.912-5.603-12.515-12.515-12.515h-21.482 c-11.15,0-16.734,13.48-8.849,21.365l21.482,21.482C396.469,320.944,409.95,315.36,409.95,304.21z" fill="#797B89"></path><g><path style="" d="M67.659,12.479c-5.057,0-7.928,2.794-7.928,8.682v21.063c0,5.888,2.869,8.681,8.078,8.681 c6.87,0,7.473-4.907,7.7-8.078c0.152-2.341,2.264-3.095,4.832-3.095c3.398,0,4.983,0.981,4.983,4.832 c0,9.134-7.473,14.947-18.042,14.947c-9.512,0-17.363-4.681-17.363-17.288V21.161c0-12.608,7.925-17.288,17.437-17.288 c10.494,0,17.968,5.586,17.968,14.343c0,3.926-1.585,4.832-4.907,4.832c-2.793,0-4.832-0.831-4.908-3.095 C75.359,17.613,74.832,12.479,67.659,12.479z" fill="#FFD15C"></path><path style="" d="M91.889,54.981c0-0.152,0.075-0.453,0.15-0.754l14.57-47.485c0.68-2.265,3.473-3.322,6.266-3.322 c2.868,0,5.661,1.056,6.341,3.322l14.57,47.485c0.076,0.302,0.152,0.528,0.152,0.754c0,2.341-3.548,4.077-6.19,4.077 c-1.661,0-2.944-0.529-3.322-1.962l-2.869-10.04h-17.289l-2.868,10.04c-0.377,1.434-1.661,1.962-3.322,1.962 C95.437,59.058,91.889,57.397,91.889,54.981z M119.443,39.355l-6.567-23.177l-6.568,23.177H119.443z" fill="#FFD15C"></path><path style="" d="M168.964,55.962l-16.231-30.348v30.348c0,2.039-2.491,3.096-4.907,3.096 c-2.492,0-4.908-1.057-4.908-3.096V6.968c0-2.114,2.416-3.095,4.908-3.095c3.548,0,4.983,0.754,7.323,5.209l14.571,28.159V6.892 c0-2.114,2.416-3.02,4.907-3.02c2.416,0,4.907,0.906,4.907,3.02v49.07c0,2.039-2.491,3.096-4.907,3.096 C172.284,59.058,170.246,58.303,168.964,55.962z" fill="#FFD15C"></path><path style="" d="M210.027,3.873c9.965,0,17.741,4.68,17.741,17.288V41.77c0,12.607-7.776,17.288-17.741,17.288 h-13.361c-2.567,0-4.304-1.435-4.304-3.02V6.892c0-1.585,1.738-3.02,4.304-3.02h13.361V3.873z M202.177,12.479v37.972h7.851 c4.983,0,7.928-2.793,7.928-8.681V21.161c0-5.888-2.944-8.682-7.928-8.682C210.028,12.479,202.177,12.479,202.177,12.479z" fill="#FFD15C"></path><path style="" d="M252.15,36.939c0-0.377-0.075-0.754-0.226-0.982L236.297,8.931 c-0.152-0.377-0.226-0.754-0.226-0.981c0-2.416,3.849-4.077,6.492-4.077c1.585,0,2.34,0.604,3.02,1.962l11.475,21.817l11.55-21.817 c0.678-1.283,1.358-1.962,2.944-1.962c2.641,0,6.493,1.661,6.493,4.077c0,0.226,0,0.604-0.228,0.981l-15.551,27.026 c-0.152,0.227-0.302,0.604-0.302,0.982v19.023c0,2.039-2.416,3.096-4.907,3.096c-2.416,0-4.908-1.057-4.908-3.096V36.939z" fill="#FFD15C"></path><path style="" d="M309.369,44.337c0-11.323-24.232-7.851-24.232-25.743c0-11.248,9.663-15.098,18.345-15.098 c4.454,0,14.343,1.056,14.343,6.039c0,1.736-1.209,5.209-3.926,5.209c-2.341,0-4.077-2.869-10.417-2.869 c-5.435,0-8.53,2.189-8.53,5.813c0,9.36,24.232,6.115,24.232,25.667c0,10.795-7.548,16.382-17.966,16.382 c-9.891,0-17.439-4.983-17.439-9.361c0-2.114,1.962-5.284,4.303-5.284c3.096,0,5.134,5.813,12.833,5.813 C305.443,50.905,309.369,48.866,309.369,44.337z" fill="#FFD15C"></path><path style="" d="M356.474,34.296h-16.987v21.666c0,2.039-2.491,3.096-4.907,3.096c-2.492,0-4.908-1.057-4.908-3.096 V6.892c0-2.114,2.416-3.02,4.908-3.02c2.416,0,4.907,0.906,4.907,3.02v19.703h16.987V6.892c0-2.114,2.416-3.02,4.907-3.02 c2.416,0,4.907,0.906,4.907,3.02v49.07c0,2.039-2.491,3.096-4.907,3.096c-2.491,0-4.907-1.057-4.907-3.096V34.296z" fill="#FFD15C"></path><path style="" d="M378.514,42.223V21.161c0-12.608,7.701-17.288,17.665-17.288c9.965,0,17.741,4.68,17.741,17.288 v21.063c0,12.607-7.776,17.288-17.741,17.288C386.215,59.51,378.514,54.829,378.514,42.223z M404.106,21.161 c0-5.964-3.02-8.682-7.928-8.682c-4.983,0-7.851,2.718-7.851,8.682v21.063c0,5.964,2.868,8.681,7.851,8.681 c4.908,0,7.928-2.718,7.928-8.681V21.161z" fill="#FFD15C"></path><path style="" d="M426.072,6.892c0-1.585,1.435-3.02,3.699-3.02h15.174c9.588,0,17.136,4.605,17.136,16.986v0.453 c0,12.381-7.776,17.136-17.74,17.136h-8.455v17.513c0,2.039-2.491,3.096-4.907,3.096c-2.492,0-4.908-1.057-4.908-3.096V6.892 H426.072z M435.885,12.479v18.269h8.455c4.907,0,7.925-2.793,7.925-8.681v-0.906c0-5.888-3.02-8.682-7.925-8.682 C444.341,12.479,435.885,12.479,435.885,12.479z" fill="#FFD15C"></path></g><path style="fill: rgb(75, 63, 63);" d="M200.729,506.01c-54.334-11.964-102.2-41.179-137.538-81.616l2.497-8.767h106.871L200.729,506.01z" fill="#FF525D"></path><path style="" d="M185.996,375.399c0,15.109-5.005,29.037-13.437,40.228c-12.204,16.185-31.597,26.645-53.435,26.645 s-41.231-10.459-53.435-26.645c-8.432-11.191-13.437-25.119-13.437-40.228c0-36.937,29.936-66.873,66.873-66.873 c4.159,0,8.234,0.376,12.183,1.108c27.167,4.995,48.587,26.415,53.582,53.582C185.62,367.165,185.996,371.24,185.996,375.399z" fill="#E8DBC4"></path><path style="" d="M184.888,363.216c-1.39,26.927-23.656,48.336-50.928,48.336c-28.16,0-50.99-22.831-50.99-50.99 c0-27.271,21.41-49.538,48.336-50.928C158.474,314.629,179.894,336.049,184.888,363.216z" fill="#F9EED7"></path><g><circle style="" cx="155.698" cy="350.319" r="16.718" fill="#FCF8F2"></circle><circle style="" cx="134.278" cy="328.898" r="9.926" fill="#FCF8F2"></circle></g><rect x="157.788" y="446.971" style="fill: rgb(255, 112, 112);" width="20.375" height="39.706" fill="#5C5E70"></rect><g><rect x="165.102" y="453.825" style="" width="5.747" height="25.996" fill="#494B5B"></rect><path style="" d="M172.559,415.627c-12.204,16.185-31.597,26.645-53.435,26.645s-41.231-10.459-53.435-26.645H172.559 z" fill="#494B5B"></path></g><rect x="259.09" y="395.583" style="" width="10.449" height="77.322" fill="#C69A6A"></rect><circle style="" cx="264.314" cy="363.192" r="47.02" fill="#F9EED7"></circle><circle style="fill: rgb(75, 63, 63);" cx="264.314" cy="363.192" r="28.023" fill="#FF525D"></circle><circle style="" cx="264.314" cy="363.192" r="8.882" fill="#F9EED7"></circle><rect x="363.944" y="395.583" style="" width="10.449" height="77.322" fill="#C69A6A"></rect><circle style="fill: rgb(75, 63, 63);" cx="369.168" cy="363.192" r="47.02" fill="#FF525D"></circle><circle style="" cx="369.168" cy="363.192" r="28.023" fill="#F9EED7"></circle><circle style="fill: rgb(75, 63, 63);" cx="369.168" cy="363.192" r="8.882" fill="#FF525D"></circle><g><circle style="" cx="261.514" cy="434.735" r="13.55" fill="#FFD15C"></circle><circle style="" cx="288.618" cy="434.735" r="13.55" fill="#FFD15C"></circle><circle style="" cx="315.723" cy="434.735" r="13.55" fill="#FFD15C"></circle><circle style="" cx="342.827" cy="434.735" r="13.55" fill="#FFD15C"></circle><circle style="" cx="369.921" cy="434.735" r="13.55" fill="#FFD15C"></circle><circle style="" cx="397.025" cy="434.735" r="13.55" fill="#FFD15C"></circle></g><path style="" d="M413.906,434.738c0,9.017-1.411,17.711-4.023,25.85c-20.804,15.684-44.094,28.264-69.171,37.052 c-16.206,5.684-33.154,9.78-50.666,12.11c-27-14.137-45.411-42.422-45.411-75.012L413.906,434.738L413.906,434.738z" fill="#EF4152"></path><path style="fill: rgb(75, 63, 63);" d="M413.906,434.738c0,9.017-1.411,17.711-4.023,25.85c-20.804,15.684-44.094,28.264-69.171,37.052 c-31.765-6.802-56.915-31.43-64.48-62.902L413.906,434.738L413.906,434.738z" fill="#FF525D"></path><circle style="" cx="382.961" cy="454.285" r="12.016" fill="#FF6E7C"></circle><circle style="" cx="290.489" cy="337.78" r="4.963" fill="#FCF8F2"></circle><circle style="" cx="394.089" cy="337.78" r="4.963" fill="#FF6E7C"></circle></svg>